<svg width="32" height="30" viewBox="0 0 32 30" fill="none" xmlns="http://www.w3.org/2000/svg">
<path d="M6.42002 29.5996C4.76623 29.5998 3.17867 28.9497 2.00002 27.7896L1.87002 27.6596C1.27782 27.0817 0.807281 26.3912 0.486121 25.6286C0.164961 24.8661 -0.000319693 24.047 1.84782e-05 23.2196C-0.00207434 22.3238 0.173626 21.4365 0.516938 20.6091C0.86025 19.7818 1.36435 19.0307 2.00002 18.3996L17.5 3.06959C19.0749 1.42985 21.2308 0.474338 23.5034 0.408872C25.776 0.343407 27.9834 1.17323 29.65 2.71959C30.4017 3.46938 30.9966 4.36129 31.4001 5.34334C31.8035 6.32539 32.0075 7.37792 32 8.43959C31.9911 9.62529 31.748 10.7976 31.2847 11.889C30.8213 12.9805 30.1468 13.9696 29.3 14.7996L15.37 28.5996C15.2834 28.7161 15.1725 28.8123 15.045 28.8816C14.9175 28.9509 14.7764 28.9916 14.6315 29.0009C14.4867 29.0102 14.3416 28.9879 14.2062 28.9355C14.0709 28.883 13.9486 28.8018 13.8478 28.6973C13.747 28.5929 13.6702 28.4677 13.6227 28.3306C13.5751 28.1935 13.558 28.0476 13.5725 27.9032C13.587 27.7588 13.6327 27.6193 13.7065 27.4943C13.7804 27.3693 13.8805 27.2619 14 27.1796L27.89 13.3796C28.5497 12.7357 29.0756 11.9678 29.4377 11.12C29.7998 10.2723 29.9909 9.36138 30 8.43959C30.0073 7.64183 29.8553 6.85064 29.5531 6.11231C29.2509 5.37398 28.8045 4.70332 28.24 4.13959C26.9478 2.96245 25.2452 2.33961 23.4985 2.40506C21.7517 2.47052 20.1005 3.21904 18.9 4.48959L3.45002 19.8196C2.99473 20.2617 2.63203 20.79 2.38308 21.3738C2.13413 21.9575 2.00391 22.585 2.00002 23.2196C1.99788 23.7768 2.10639 24.3289 2.31924 24.8439C2.5321 25.3589 2.84508 25.8265 3.24002 26.2196L3.37002 26.3496C4.26477 27.1735 5.44727 27.6132 6.66297 27.5739C7.87866 27.5346 9.03032 27.0196 9.87002 26.1396L23.22 12.9396C23.4725 12.6843 23.6715 12.3813 23.8054 12.0482C23.9394 11.715 24.0055 11.3586 24 10.9996C24.0022 10.6878 23.9423 10.3787 23.8239 10.0902C23.7054 9.80181 23.5307 9.53983 23.31 9.31959C22.805 8.8565 22.1381 8.61057 21.4534 8.63489C20.7686 8.65921 20.1209 8.95183 19.65 9.44959L10.45 18.5696C10.2617 18.7566 10.0068 18.8611 9.74148 18.8601C9.47612 18.8592 9.222 18.7529 9.03502 18.5646C8.84804 18.3763 8.74352 18.1214 8.74446 17.8561C8.7454 17.5907 8.85171 17.3366 9.04002 17.1496L18.28 7.99959C19.127 7.13191 20.2811 6.63198 21.4934 6.60766C22.7057 6.58334 23.8789 7.03658 24.76 7.86959C25.1652 8.28208 25.4837 8.77156 25.6967 9.30914C25.9097 9.84671 26.0128 10.4215 26 10.9996C25.9989 11.6221 25.8737 12.2382 25.6316 12.8117C25.3895 13.3852 25.0354 13.9046 24.59 14.3396L11.28 27.5796C9.98991 28.8677 8.24306 29.5937 6.42002 29.5996Z" fill="#C08937"/>
</svg>
