<svg width="67" height="67" viewBox="0 0 67 67" fill="none" xmlns="http://www.w3.org/2000/svg">
<path d="M33.5 0C24.4089 0 23.2658 0.041875 19.6938 0.201C16.1219 0.3685 13.6889 0.929625 11.5575 1.75875C9.32177 2.59968 7.29668 3.91877 5.62381 5.62381C3.91982 7.29754 2.60089 9.32238 1.75875 11.5575C0.929625 13.6847 0.364312 16.1219 0.201 19.6812C0.041875 23.2616 0 24.4006 0 33.5042C0 42.5994 0.041875 43.7384 0.201 47.3104C0.3685 50.8781 0.929625 53.3111 1.75875 55.4425C2.61719 57.6451 3.76038 59.5127 5.62381 61.3762C7.48306 63.2396 9.35069 64.387 11.5533 65.2412C13.6889 66.0704 16.1177 66.6357 19.6854 66.799C23.2616 66.9581 24.4006 67 33.5 67C42.5994 67 43.7343 66.9581 47.3104 66.799C50.8739 66.6315 53.3153 66.0704 55.4467 65.2412C57.681 64.3999 59.7046 63.0808 61.3762 61.3762C63.2396 59.5127 64.3828 57.6451 65.2412 55.4425C66.0662 53.3111 66.6315 50.8781 66.799 47.3104C66.9581 43.7384 67 42.5994 67 33.5C67 24.4006 66.9581 23.2616 66.799 19.6854C66.6315 16.1219 66.0662 13.6847 65.2412 11.5575C64.3992 9.32232 63.0803 7.29745 61.3762 5.62381C59.7038 3.91814 57.6786 2.59895 55.4425 1.75875C53.3069 0.929625 50.8698 0.364312 47.3062 0.201C43.7301 0.041875 42.5952 0 33.4916 0H33.5042H33.5ZM30.4976 6.03837H33.5042C42.4487 6.03837 43.5081 6.06769 47.0382 6.231C50.3044 6.37756 52.0799 6.92613 53.2608 7.38256C54.8228 7.98975 55.9408 8.71838 57.1133 9.89087C58.2858 11.0634 59.0103 12.1772 59.6174 13.7434C60.0781 14.9201 60.6224 16.6956 60.769 19.9618C60.9323 23.4919 60.9658 24.5513 60.9658 33.4916C60.9658 42.4319 60.9323 43.4956 60.769 47.0256C60.6224 50.2919 60.0739 52.0632 59.6174 53.2441C59.0804 54.6986 58.2231 56.0138 57.1091 57.0924C55.9366 58.2649 54.8228 58.9893 53.2566 59.5965C52.0841 60.0571 50.3086 60.6015 47.0382 60.7523C43.5081 60.9114 42.4487 60.9491 33.5042 60.9491C24.5597 60.9491 23.4961 60.9114 19.966 60.7523C16.6998 60.6015 14.9284 60.0571 13.7476 59.5965C12.2924 59.0602 10.976 58.2045 9.89506 57.0924C8.78014 56.0121 7.92159 54.6957 7.38256 53.2399C6.92613 52.0632 6.37756 50.2877 6.231 47.0214C6.07188 43.4914 6.03837 42.4319 6.03837 33.4832C6.03837 24.5387 6.07188 23.4835 6.231 19.9534C6.38175 16.6872 6.92613 14.9117 7.38675 13.7308C7.99394 12.1689 8.72256 11.0508 9.89506 9.87831C11.0676 8.70581 12.1814 7.98138 13.7476 7.37419C14.9284 6.91356 16.6998 6.36919 19.966 6.21844C23.0564 6.07606 24.254 6.03419 30.4976 6.03V6.03837ZM51.3848 11.5994C50.8569 11.5994 50.3342 11.7034 49.8464 11.9054C49.3587 12.1074 48.9155 12.4035 48.5422 12.7768C48.169 13.1501 47.8728 13.5933 47.6708 14.081C47.4688 14.5687 47.3648 15.0915 47.3648 15.6194C47.3648 16.1473 47.4688 16.67 47.6708 17.1578C47.8728 17.6455 48.169 18.0887 48.5422 18.4619C48.9155 18.8352 49.3587 19.1313 49.8464 19.3334C50.3342 19.5354 50.8569 19.6394 51.3848 19.6394C52.451 19.6394 53.4735 19.2158 54.2274 18.4619C54.9813 17.708 55.4048 16.6855 55.4048 15.6194C55.4048 14.5532 54.9813 13.5307 54.2274 12.7768C53.4735 12.0229 52.451 11.5994 51.3848 11.5994ZM33.5042 16.2978C31.2223 16.2621 28.9561 16.6808 26.8376 17.5295C24.7191 18.3781 22.7905 19.6397 21.1643 21.2408C19.538 22.8419 18.2465 24.7505 17.3649 26.8555C16.4833 28.9606 16.0293 31.2199 16.0293 33.5021C16.0293 35.7843 16.4833 38.0436 17.3649 40.1487C18.2465 42.2537 19.538 44.1623 21.1643 45.7634C22.7905 47.3645 24.7191 48.6261 26.8376 49.4747C28.9561 50.3233 31.2223 50.742 33.5042 50.7064C38.0206 50.636 42.3281 48.7924 45.4971 45.5736C48.666 42.3548 50.4422 38.019 50.4422 33.5021C50.4422 28.9852 48.666 24.6494 45.4971 21.4306C42.3281 18.2118 38.0206 16.3682 33.5042 16.2978ZM33.5042 22.3319C36.4661 22.3319 39.3068 23.5086 41.4012 25.603C43.4956 27.6974 44.6723 30.538 44.6723 33.5C44.6723 36.462 43.4956 39.3026 41.4012 41.397C39.3068 43.4914 36.4661 44.6681 33.5042 44.6681C30.5422 44.6681 27.7016 43.4914 25.6072 41.397C23.5128 39.3026 22.3361 36.462 22.3361 33.5C22.3361 30.538 23.5128 27.6974 25.6072 25.603C27.7016 23.5086 30.5422 22.3319 33.5042 22.3319Z" fill="#C08937"/>
</svg>
